<?xml version="1.0" standalone="no"?>
<!DOCTYPE svg PUBLIC "-//W3C//DTD SVG 20010904//EN"
 "http://www.w3.org/TR/2001/REC-SVG-20010904/DTD/svg10.dtd">
<svg version="1.0" xmlns="http://www.w3.org/2000/svg"
 width="512.000000pt" height="512.000000pt" viewBox="0 0 512.000000 512.000000"
 preserveAspectRatio="xMidYMid meet">

<g transform="translate(0.000000,512.000000) scale(0.100000,-0.100000)"
fill="#000000" stroke="none">
<path fill="#fff" d="M3757 5045 c-56 -21 -72 -37 -203 -190 -232 -273 -444 -561 -645
-877 l-106 -167 -119 141 c-226 269 -251 289 -362 289 -96 0 -140 -30 -278
-193 -251 -295 -461 -565 -677 -870 -54 -76 -99 -138 -101 -138 -2 0 -47 69
-99 153 -200 319 -234 352 -357 352 -102 -1 -151 -33 -228 -150 -298 -458
-479 -804 -553 -1060 -33 -111 -33 -285 -1 -398 86 -302 344 -539 641 -588
l69 -12 17 -66 c142 -567 625 -1034 1205 -1166 375 -86 763 -39 1103 133 419
213 729 601 841 1052 36 146 47 234 48 383 0 88 4 129 12 132 6 1 47 8 91 15
163 24 350 99 500 199 90 60 240 204 311 297 106 142 186 319 227 504 25 113
29 342 8 430 -72 304 -241 632 -544 1054 -243 338 -532 684 -605 724 -54 30
-142 38 -195 17z m181 -697 c247 -311 473 -650 596 -897 84 -167 108 -241 114
-353 22 -421 -318 -795 -750 -825 l-86 -6 -90 179 c-151 301 -322 582 -512
841 l-89 121 93 164 c107 187 229 377 347 540 101 139 269 348 279 348 5 0 49
-51 98 -112z m-1526 -793 c556 -673 978 -1361 1059 -1724 72 -325 -74 -738
-353 -995 -468 -434 -1201 -407 -1637 59 -131 141 -206 272 -267 463 l-23 72
57 36 c133 86 230 195 298 339 98 206 105 397 22 625 -36 102 -37 127 -2 194
92 177 733 1036 764 1024 4 -2 41 -43 82 -93z m-1522 -795 c102 -173 214 -398
246 -492 48 -145 22 -260 -83 -365 -131 -129 -348 -129 -478 1 -101 101 -129
219 -84 359 34 106 182 394 306 595 7 12 15 22 18 22 2 0 36 -54 75 -120z"/>
<path d="M3789 4102 c-40 -35 -50 -102 -22 -144 44 -64 241 -325 275 -362 34
-38 40 -41 88 -41 46 0 55 4 81 33 23 25 29 42 29 76 0 37 -9 56 -66 137 -100
141 -222 297 -247 314 -36 25 -102 19 -138 -13z"/>
<path d="M4218 3524 c-31 -16 -58 -61 -58 -97 0 -41 84 -200 114 -216 61 -33
136 -7 162 56 19 44 12 77 -33 166 -49 98 -114 130 -185 91z"/>
<path d="M3034 1996 c-40 -40 -42 -59 -18 -185 19 -98 15 -212 -10 -304 -21
-77 -80 -196 -121 -244 -56 -66 -85 -115 -85 -145 0 -44 25 -83 66 -103 71
-33 138 13 241 165 106 157 161 360 150 554 -13 224 -49 296 -145 296 -37 0
-50 -6 -78 -34z"/>
<path d="M2485 1009 c-16 -5 -70 -13 -119 -19 -99 -10 -127 -27 -146 -86 -15
-45 2 -97 40 -124 22 -16 44 -20 102 -20 86 1 224 29 263 54 91 60 42 207 -68
205 -23 0 -55 -5 -72 -10z"/>
</g>
</svg>
